<svg width="98" height="75" viewBox="0 0 98 75" fill="none" xmlns="http://www.w3.org/2000/svg">
<path d="M46.3453 69.9053L14.6555 78.614C9.30344 80.1591 3.66969 76.9284 2.12041 71.5908L-6.6119 39.9866C-8.16118 34.6489 -4.92177 29.0304 0.430287 27.4853L32.1201 18.7766C37.4722 17.2315 43.1059 20.4621 44.6552 25.7998L53.5284 57.404C54.9368 62.8821 51.8382 68.5006 46.3453 69.9053Z" fill="#767C81"/>
<path d="M7.60807 36.4807C8.31229 38.8686 6.90385 41.3969 4.50951 41.9588C2.11517 42.6611 -0.420019 41.2565 -0.983394 38.8686C-1.54677 36.4807 -0.279176 33.9524 2.11517 33.3905C4.50951 32.6882 6.90385 34.0928 7.60807 36.4807Z" fill="#383F44"/>
<path d="M27.7538 47.4355C28.4581 49.8234 27.0496 52.3517 24.6553 52.9136C22.2609 53.6159 19.7257 52.2113 19.1624 49.8234C18.4581 47.4355 19.8666 44.9072 22.2609 44.3453C24.6553 43.643 27.0496 45.0476 27.7538 47.4355Z" fill="#383F44"/>
<path d="M47.8929 58.5364C48.5971 60.9243 47.1886 63.4526 44.7943 64.0144C42.4 64.7168 39.8648 63.3121 39.3014 60.9243C38.5972 58.5364 40.0056 56.008 42.4 55.4462C44.7943 54.7439 47.1887 56.1485 47.8929 58.5364Z" fill="#383F44"/>
<path d="M96.4819 31.2769L80.2849 59.9315C77.468 64.8477 71.2709 66.5332 66.4822 63.724L37.7501 47.5707C32.8206 44.7614 31.1305 38.581 33.9473 33.8053L50.1444 5.15073C52.9612 0.234509 59.1584 -1.45105 63.9471 1.35822L92.5383 17.5115C97.6087 20.1803 99.2988 26.3607 96.4819 31.2769Z" fill="#434E56"/>
<path d="M46.0509 33.9508C48.1635 35.2149 49.0086 37.8838 47.741 40.1312C46.4734 42.2381 43.7974 43.0809 41.5439 41.8167C39.4312 40.5526 38.5862 37.8838 39.8538 35.6363C41.1213 33.5294 43.7974 32.6866 46.0509 33.9508Z" fill="#757C81"/>
<path d="M59.8603 41.813C61.973 43.0772 62.818 45.746 61.5505 47.9934C60.2829 50.1004 57.6068 50.9431 55.3533 49.679C53.2407 48.4148 52.3956 45.746 53.6632 43.4986C54.9308 41.3916 57.7477 40.5489 59.8603 41.813Z" fill="#757C81"/>
<path d="M73.8083 49.6844C75.921 50.9486 76.766 53.6174 75.4984 55.8648C74.2309 57.9717 71.5548 58.8145 69.3013 57.5503C67.1887 56.2862 66.3436 53.6174 67.6112 51.3699C68.8788 49.263 71.6957 48.4202 73.8083 49.6844Z" fill="#757C81"/>
<path d="M84.5141 30.9974C82.4014 29.7332 81.5564 27.0644 82.824 24.817C84.0916 22.7101 86.7676 21.8673 89.0211 23.1314C91.1337 24.3956 91.9788 27.0644 90.7112 29.3118C89.4436 31.5592 86.6267 32.2616 84.5141 30.9974Z" fill="#757C81"/>
<path d="M70.5721 23.129C68.4594 21.8649 67.6144 19.1961 68.882 16.9487C70.1495 14.8417 72.8256 13.9989 75.0791 15.2631C77.1917 16.5273 78.0368 19.1961 76.7692 21.4435C75.5016 23.6909 72.6847 24.3932 70.5721 23.129Z" fill="#757C81"/>
<path d="M56.6244 15.2608C54.3709 13.9966 53.6667 11.3278 54.9343 9.08037C56.2019 6.97342 58.8779 6.13064 61.1314 7.39481C63.2441 8.65898 64.0892 11.3278 62.8216 13.5752C61.554 15.8226 58.7371 16.5249 56.6244 15.2608Z" fill="#757C81"/>
</svg>
